<mxfile host="Electron" agent="Mozilla/5.0 (X11; Linux x86_64) AppleWebKit/537.36 (KHTML, like Gecko) draw.io/24.7.17 Chrome/128.0.6613.36 Electron/32.0.1 Safari/537.36" version="24.7.17">
  <diagram name="Page-1" id="e7e014a7-5840-1c2e-5031-d8a46d1fe8dd">
    <mxGraphModel dx="1766" dy="750" grid="0" gridSize="10" guides="0" tooltips="1" connect="0" arrows="1" fold="1" page="0" pageScale="1" pageWidth="1169" pageHeight="826" background="none" math="0" shadow="0">
      <root>
        <mxCell id="0" />
        <mxCell id="1" parent="0" />
        <mxCell id="GOKQv8CPCW2Fxh-G2tMz-41" value="" style="ellipse;whiteSpace=wrap;html=1;aspect=fixed;fillColor=#000000;" vertex="1" parent="1">
          <mxGeometry x="418" y="53" width="59" height="59" as="geometry" />
        </mxCell>
        <mxCell id="GOKQv8CPCW2Fxh-G2tMz-42" value="Gerenciar&lt;div style=&quot;font-size: 17px;&quot;&gt;Usuários&lt;/div&gt;" style="rounded=1;whiteSpace=wrap;html=1;fontSize=17;" vertex="1" parent="1">
          <mxGeometry x="392" y="170" width="120" height="60" as="geometry" />
        </mxCell>
        <mxCell id="GOKQv8CPCW2Fxh-G2tMz-44" style="edgeStyle=orthogonalEdgeStyle;rounded=0;orthogonalLoop=1;jettySize=auto;html=1;entryX=0.469;entryY=0.011;entryDx=0;entryDy=0;entryPerimeter=0;endArrow=open;endFill=0;" edge="1" parent="1" source="GOKQv8CPCW2Fxh-G2tMz-41" target="GOKQv8CPCW2Fxh-G2tMz-42">
          <mxGeometry relative="1" as="geometry" />
        </mxCell>
        <mxCell id="GOKQv8CPCW2Fxh-G2tMz-45" value="&lt;div style=&quot;text-align: center; font-size: 11px;&quot;&gt;&lt;span style=&quot;text-align: start; background-color: initial; font-size: 11px;&quot;&gt;&lt;font style=&quot;font-size: 11px;&quot;&gt;Cadastrar novo&lt;/font&gt;&lt;/span&gt;&lt;/div&gt;&lt;div style=&quot;text-align: center; font-size: 11px;&quot;&gt;&lt;span style=&quot;text-align: start; background-color: initial; font-size: 11px;&quot;&gt;&lt;font style=&quot;font-size: 11px;&quot;&gt;&lt;font face=&quot;Roboto, Arial, sans-serif&quot; style=&quot;font-size: 11px;&quot;&gt;usuário?&lt;/font&gt;&lt;/font&gt;&lt;/span&gt;&lt;/div&gt;" style="rhombus;whiteSpace=wrap;html=1;fontSize=11;" vertex="1" parent="1">
          <mxGeometry x="397" y="269" width="112" height="80" as="geometry" />
        </mxCell>
        <mxCell id="GOKQv8CPCW2Fxh-G2tMz-46" style="edgeStyle=orthogonalEdgeStyle;rounded=0;orthogonalLoop=1;jettySize=auto;html=1;entryX=0.493;entryY=0.004;entryDx=0;entryDy=0;entryPerimeter=0;endArrow=open;endFill=0;" edge="1" parent="1" source="GOKQv8CPCW2Fxh-G2tMz-42" target="GOKQv8CPCW2Fxh-G2tMz-45">
          <mxGeometry relative="1" as="geometry" />
        </mxCell>
        <mxCell id="GOKQv8CPCW2Fxh-G2tMz-47" value="Cadastrar&lt;div style=&quot;font-size: 15px;&quot;&gt;Usuário&lt;/div&gt;" style="rounded=1;whiteSpace=wrap;html=1;fontSize=15;" vertex="1" parent="1">
          <mxGeometry x="21" y="278" width="120" height="60" as="geometry" />
        </mxCell>
        <mxCell id="GOKQv8CPCW2Fxh-G2tMz-48" style="edgeStyle=orthogonalEdgeStyle;rounded=0;orthogonalLoop=1;jettySize=auto;html=1;entryX=1.008;entryY=0.514;entryDx=0;entryDy=0;entryPerimeter=0;endArrow=open;endFill=0;" edge="1" parent="1" source="GOKQv8CPCW2Fxh-G2tMz-45" target="GOKQv8CPCW2Fxh-G2tMz-47">
          <mxGeometry relative="1" as="geometry" />
        </mxCell>
        <mxCell id="GOKQv8CPCW2Fxh-G2tMz-49" value="[Sim]" style="text;html=1;align=center;verticalAlign=middle;resizable=0;points=[];autosize=1;strokeColor=none;fillColor=none;" vertex="1" parent="1">
          <mxGeometry x="247" y="287" width="45" height="26" as="geometry" />
        </mxCell>
        <mxCell id="GOKQv8CPCW2Fxh-G2tMz-50" value="&lt;div style=&quot;text-align: start; font-size: 11px;&quot;&gt;Dados do&amp;nbsp;&lt;/div&gt;&lt;div style=&quot;text-align: start; font-size: 11px;&quot;&gt;&amp;nbsp;usuário&lt;/div&gt;" style="rhombus;whiteSpace=wrap;html=1;fontSize=11;" vertex="1" parent="1">
          <mxGeometry x="25" y="396" width="112" height="80" as="geometry" />
        </mxCell>
        <mxCell id="GOKQv8CPCW2Fxh-G2tMz-51" style="edgeStyle=orthogonalEdgeStyle;rounded=0;orthogonalLoop=1;jettySize=auto;html=1;entryX=0.501;entryY=0.017;entryDx=0;entryDy=0;entryPerimeter=0;endArrow=open;endFill=0;" edge="1" parent="1" source="GOKQv8CPCW2Fxh-G2tMz-47" target="GOKQv8CPCW2Fxh-G2tMz-50">
          <mxGeometry relative="1" as="geometry" />
        </mxCell>
        <mxCell id="GOKQv8CPCW2Fxh-G2tMz-52" value="Corrigir dados&amp;nbsp;&lt;div style=&quot;font-size: 15px;&quot;&gt;de usuario&lt;/div&gt;" style="rounded=1;whiteSpace=wrap;html=1;fontSize=15;" vertex="1" parent="1">
          <mxGeometry x="-321" y="406" width="120" height="60" as="geometry" />
        </mxCell>
        <mxCell id="GOKQv8CPCW2Fxh-G2tMz-53" style="edgeStyle=orthogonalEdgeStyle;rounded=0;orthogonalLoop=1;jettySize=auto;html=1;endArrow=open;endFill=0;entryX=1.003;entryY=0.515;entryDx=0;entryDy=0;entryPerimeter=0;" edge="1" parent="1">
          <mxGeometry relative="1" as="geometry">
            <mxPoint x="26.244444444444298" y="435.8888888888888" as="sourcePoint" />
            <mxPoint x="-200.64" y="435.9" as="targetPoint" />
            <Array as="points">
              <mxPoint x="-88" y="435" />
            </Array>
          </mxGeometry>
        </mxCell>
        <mxCell id="GOKQv8CPCW2Fxh-G2tMz-54" value="[Dados incompletos]" style="text;html=1;align=center;verticalAlign=middle;resizable=0;points=[];autosize=1;strokeColor=none;fillColor=none;" vertex="1" parent="1">
          <mxGeometry x="-155" y="413" width="127" height="26" as="geometry" />
        </mxCell>
        <mxCell id="GOKQv8CPCW2Fxh-G2tMz-55" style="edgeStyle=orthogonalEdgeStyle;rounded=0;orthogonalLoop=1;jettySize=auto;html=1;entryX=0.233;entryY=0.743;entryDx=0;entryDy=0;entryPerimeter=0;endArrow=open;endFill=0;" edge="1" parent="1">
          <mxGeometry relative="1" as="geometry">
            <mxPoint x="-201" y="454.41666666666674" as="sourcePoint" />
            <mxPoint x="51.096000000000004" y="454.4399999999998" as="targetPoint" />
            <Array as="points">
              <mxPoint x="-144" y="454" />
            </Array>
          </mxGeometry>
        </mxCell>
        <mxCell id="GOKQv8CPCW2Fxh-G2tMz-56" value="&lt;div style=&quot;text-align: start; font-size: 11px;&quot;&gt;Validar&amp;nbsp;&lt;/div&gt;&lt;div style=&quot;text-align: start; font-size: 11px;&quot;&gt;Dados&lt;/div&gt;" style="rhombus;whiteSpace=wrap;html=1;fontSize=11;" vertex="1" parent="1">
          <mxGeometry x="27" y="624" width="112" height="80" as="geometry" />
        </mxCell>
        <mxCell id="GOKQv8CPCW2Fxh-G2tMz-58" style="edgeStyle=orthogonalEdgeStyle;rounded=0;orthogonalLoop=1;jettySize=auto;html=1;endArrow=open;endFill=0;entryX=0.488;entryY=0.016;entryDx=0;entryDy=0;entryPerimeter=0;" edge="1" parent="1" source="GOKQv8CPCW2Fxh-G2tMz-50" target="GOKQv8CPCW2Fxh-G2tMz-64">
          <mxGeometry relative="1" as="geometry">
            <mxPoint x="81" y="521" as="targetPoint" />
          </mxGeometry>
        </mxCell>
        <mxCell id="GOKQv8CPCW2Fxh-G2tMz-59" value="[Dados completos]" style="text;html=1;align=center;verticalAlign=middle;resizable=0;points=[];autosize=1;strokeColor=none;fillColor=none;" vertex="1" parent="1">
          <mxGeometry x="75" y="480" width="117" height="26" as="geometry" />
        </mxCell>
        <mxCell id="GOKQv8CPCW2Fxh-G2tMz-60" value="Repetir&amp;nbsp;&lt;div&gt;cadastro de&amp;nbsp;&lt;/div&gt;&lt;div&gt;dados&lt;/div&gt;" style="rounded=1;whiteSpace=wrap;html=1;fontSize=13;" vertex="1" parent="1">
          <mxGeometry x="-235" y="636" width="120" height="60" as="geometry" />
        </mxCell>
        <mxCell id="GOKQv8CPCW2Fxh-G2tMz-61" style="edgeStyle=orthogonalEdgeStyle;rounded=0;orthogonalLoop=1;jettySize=auto;html=1;entryX=1.001;entryY=0.464;entryDx=0;entryDy=0;entryPerimeter=0;endArrow=open;endFill=0;" edge="1" parent="1" source="GOKQv8CPCW2Fxh-G2tMz-56" target="GOKQv8CPCW2Fxh-G2tMz-60">
          <mxGeometry relative="1" as="geometry" />
        </mxCell>
        <mxCell id="GOKQv8CPCW2Fxh-G2tMz-62" value="[Validação falhou]" style="text;html=1;align=center;verticalAlign=middle;resizable=0;points=[];autosize=1;strokeColor=none;fillColor=none;" vertex="1" parent="1">
          <mxGeometry x="-102" y="642" width="113" height="26" as="geometry" />
        </mxCell>
        <mxCell id="GOKQv8CPCW2Fxh-G2tMz-64" value="Cadastra dados" style="rounded=1;whiteSpace=wrap;html=1;fontSize=15;" vertex="1" parent="1">
          <mxGeometry x="22" y="522" width="120" height="60" as="geometry" />
        </mxCell>
        <mxCell id="GOKQv8CPCW2Fxh-G2tMz-65" style="edgeStyle=orthogonalEdgeStyle;rounded=0;orthogonalLoop=1;jettySize=auto;html=1;entryX=0.494;entryY=0.025;entryDx=0;entryDy=0;entryPerimeter=0;endArrow=open;endFill=0;" edge="1" parent="1" source="GOKQv8CPCW2Fxh-G2tMz-64" target="GOKQv8CPCW2Fxh-G2tMz-56">
          <mxGeometry relative="1" as="geometry" />
        </mxCell>
        <mxCell id="GOKQv8CPCW2Fxh-G2tMz-66" style="edgeStyle=orthogonalEdgeStyle;rounded=0;orthogonalLoop=1;jettySize=auto;html=1;entryX=-0.003;entryY=0.499;entryDx=0;entryDy=0;entryPerimeter=0;endArrow=open;endFill=0;" edge="1" parent="1" source="GOKQv8CPCW2Fxh-G2tMz-60" target="GOKQv8CPCW2Fxh-G2tMz-64">
          <mxGeometry relative="1" as="geometry">
            <Array as="points">
              <mxPoint x="-175" y="552" />
            </Array>
          </mxGeometry>
        </mxCell>
        <mxCell id="GOKQv8CPCW2Fxh-G2tMz-67" value="Cadastro&amp;nbsp;&lt;div&gt;efetuado&lt;/div&gt;" style="rounded=1;whiteSpace=wrap;html=1;fontSize=13;" vertex="1" parent="1">
          <mxGeometry x="24" y="756" width="120" height="60" as="geometry" />
        </mxCell>
        <mxCell id="GOKQv8CPCW2Fxh-G2tMz-68" style="edgeStyle=orthogonalEdgeStyle;rounded=0;orthogonalLoop=1;jettySize=auto;html=1;entryX=0.489;entryY=0.006;entryDx=0;entryDy=0;entryPerimeter=0;endArrow=open;endFill=0;" edge="1" parent="1" source="GOKQv8CPCW2Fxh-G2tMz-56" target="GOKQv8CPCW2Fxh-G2tMz-67">
          <mxGeometry relative="1" as="geometry" />
        </mxCell>
        <mxCell id="GOKQv8CPCW2Fxh-G2tMz-69" value="[Validação completa]" style="text;html=1;align=center;verticalAlign=middle;resizable=0;points=[];autosize=1;strokeColor=none;fillColor=none;" vertex="1" parent="1">
          <mxGeometry x="81" y="711" width="129" height="26" as="geometry" />
        </mxCell>
        <mxCell id="GOKQv8CPCW2Fxh-G2tMz-72" value="" style="ellipse;html=1;shape=endState;fillColor=#000000;strokeColor=#000000;" vertex="1" parent="1">
          <mxGeometry x="362" y="1176" width="30" height="30" as="geometry" />
        </mxCell>
        <mxCell id="GOKQv8CPCW2Fxh-G2tMz-73" value="" style="rounded=0;whiteSpace=wrap;html=1;fillColor=#000000;" vertex="1" parent="1">
          <mxGeometry x="317" y="1130" width="120" height="16" as="geometry" />
        </mxCell>
        <mxCell id="GOKQv8CPCW2Fxh-G2tMz-74" style="edgeStyle=orthogonalEdgeStyle;rounded=0;orthogonalLoop=1;jettySize=auto;html=1;entryX=0.506;entryY=0.013;entryDx=0;entryDy=0;entryPerimeter=0;endArrow=open;endFill=0;" edge="1" parent="1" source="GOKQv8CPCW2Fxh-G2tMz-73" target="GOKQv8CPCW2Fxh-G2tMz-72">
          <mxGeometry relative="1" as="geometry" />
        </mxCell>
        <mxCell id="GOKQv8CPCW2Fxh-G2tMz-75" style="edgeStyle=orthogonalEdgeStyle;rounded=0;orthogonalLoop=1;jettySize=auto;html=1;endArrow=open;endFill=0;entryX=0.512;entryY=-0.005;entryDx=0;entryDy=0;entryPerimeter=0;" edge="1" parent="1" source="GOKQv8CPCW2Fxh-G2tMz-67" target="GOKQv8CPCW2Fxh-G2tMz-73">
          <mxGeometry relative="1" as="geometry">
            <mxPoint x="378" y="1129" as="targetPoint" />
            <Array as="points">
              <mxPoint x="84" y="955" />
              <mxPoint x="378" y="955" />
            </Array>
          </mxGeometry>
        </mxCell>
        <mxCell id="GOKQv8CPCW2Fxh-G2tMz-80" value="Promover&lt;div style=&quot;font-size: 16px;&quot;&gt;Usuário&lt;br style=&quot;font-size: 16px;&quot;&gt;&lt;/div&gt;" style="rounded=1;whiteSpace=wrap;html=1;fontSize=16;" vertex="1" parent="1">
          <mxGeometry x="670" y="279" width="120" height="60" as="geometry" />
        </mxCell>
        <mxCell id="GOKQv8CPCW2Fxh-G2tMz-81" style="edgeStyle=orthogonalEdgeStyle;rounded=0;orthogonalLoop=1;jettySize=auto;html=1;entryX=0.01;entryY=0.488;entryDx=0;entryDy=0;entryPerimeter=0;endArrow=open;endFill=0;" edge="1" parent="1" source="GOKQv8CPCW2Fxh-G2tMz-45" target="GOKQv8CPCW2Fxh-G2tMz-80">
          <mxGeometry relative="1" as="geometry" />
        </mxCell>
        <mxCell id="GOKQv8CPCW2Fxh-G2tMz-82" value="[Não]" style="text;html=1;align=center;verticalAlign=middle;resizable=0;points=[];autosize=1;strokeColor=none;fillColor=none;" vertex="1" parent="1">
          <mxGeometry x="565" y="286" width="47" height="26" as="geometry" />
        </mxCell>
        <mxCell id="GOKQv8CPCW2Fxh-G2tMz-83" value="&lt;div style=&quot;font-size: 12px;&quot;&gt;&lt;font style=&quot;font-size: 12px;&quot;&gt;Exibir lista de&amp;nbsp;&lt;/font&gt;&lt;/div&gt;&lt;div style=&quot;font-size: 12px;&quot;&gt;&lt;font style=&quot;font-size: 12px;&quot;&gt;opções de promoção disponíveis&lt;/font&gt;&lt;/div&gt;" style="rounded=1;whiteSpace=wrap;html=1;fontSize=12;" vertex="1" parent="1">
          <mxGeometry x="671" y="392" width="120" height="60" as="geometry" />
        </mxCell>
        <mxCell id="GOKQv8CPCW2Fxh-G2tMz-84" style="edgeStyle=orthogonalEdgeStyle;rounded=0;orthogonalLoop=1;jettySize=auto;html=1;entryX=0.491;entryY=-0.004;entryDx=0;entryDy=0;entryPerimeter=0;endArrow=open;endFill=0;" edge="1" parent="1" source="GOKQv8CPCW2Fxh-G2tMz-80" target="GOKQv8CPCW2Fxh-G2tMz-83">
          <mxGeometry relative="1" as="geometry" />
        </mxCell>
        <mxCell id="GOKQv8CPCW2Fxh-G2tMz-85" value="&lt;div style=&quot;text-align: start; font-size: 11px;&quot;&gt;Ator possui&lt;/div&gt;&lt;div style=&quot;text-align: start; font-size: 11px;&quot;&gt;permissão?&lt;/div&gt;" style="rhombus;whiteSpace=wrap;html=1;fontSize=11;" vertex="1" parent="1">
          <mxGeometry x="675" y="523" width="112" height="80" as="geometry" />
        </mxCell>
        <mxCell id="GOKQv8CPCW2Fxh-G2tMz-86" style="edgeStyle=orthogonalEdgeStyle;rounded=0;orthogonalLoop=1;jettySize=auto;html=1;entryX=0.499;entryY=-0.002;entryDx=0;entryDy=0;entryPerimeter=0;endArrow=open;endFill=0;" edge="1" parent="1" source="GOKQv8CPCW2Fxh-G2tMz-83" target="GOKQv8CPCW2Fxh-G2tMz-85">
          <mxGeometry relative="1" as="geometry" />
        </mxCell>
        <mxCell id="GOKQv8CPCW2Fxh-G2tMz-87" value="&lt;div style=&quot;font-size: 12px;&quot;&gt;Solicitação de&amp;nbsp;&lt;/div&gt;&lt;div style=&quot;font-size: 12px;&quot;&gt;promoção&lt;/div&gt;" style="rounded=1;whiteSpace=wrap;html=1;fontSize=12;" vertex="1" parent="1">
          <mxGeometry x="669" y="653" width="120" height="60" as="geometry" />
        </mxCell>
        <mxCell id="GOKQv8CPCW2Fxh-G2tMz-88" style="edgeStyle=orthogonalEdgeStyle;rounded=0;orthogonalLoop=1;jettySize=auto;html=1;entryX=0.512;entryY=0.007;entryDx=0;entryDy=0;entryPerimeter=0;endArrow=open;endFill=0;" edge="1" parent="1" source="GOKQv8CPCW2Fxh-G2tMz-85" target="GOKQv8CPCW2Fxh-G2tMz-87">
          <mxGeometry relative="1" as="geometry" />
        </mxCell>
        <mxCell id="GOKQv8CPCW2Fxh-G2tMz-89" value="[possui permissão]" style="text;html=1;align=center;verticalAlign=middle;resizable=0;points=[];autosize=1;strokeColor=none;fillColor=none;" vertex="1" parent="1">
          <mxGeometry x="726" y="608" width="118" height="26" as="geometry" />
        </mxCell>
        <mxCell id="GOKQv8CPCW2Fxh-G2tMz-90" value="&lt;div style=&quot;text-align: start; font-size: 11px;&quot;&gt;&amp;nbsp; Validar&amp;nbsp;&lt;/div&gt;&lt;div style=&quot;text-align: start; font-size: 11px;&quot;&gt;promoção&lt;/div&gt;" style="rhombus;whiteSpace=wrap;html=1;fontSize=11;" vertex="1" parent="1">
          <mxGeometry x="673" y="760" width="112" height="80" as="geometry" />
        </mxCell>
        <mxCell id="GOKQv8CPCW2Fxh-G2tMz-91" value="&lt;div style=&quot;font-size: 12px;&quot;&gt;Promoção&amp;nbsp;&lt;/div&gt;&lt;div style=&quot;font-size: 12px;&quot;&gt;indisponível&lt;/div&gt;" style="rounded=1;whiteSpace=wrap;html=1;fontSize=12;" vertex="1" parent="1">
          <mxGeometry x="935" y="533" width="120" height="60" as="geometry" />
        </mxCell>
        <mxCell id="GOKQv8CPCW2Fxh-G2tMz-92" style="edgeStyle=orthogonalEdgeStyle;rounded=0;orthogonalLoop=1;jettySize=auto;html=1;entryX=0.002;entryY=0.488;entryDx=0;entryDy=0;entryPerimeter=0;endArrow=open;endFill=0;" edge="1" parent="1" source="GOKQv8CPCW2Fxh-G2tMz-85" target="GOKQv8CPCW2Fxh-G2tMz-91">
          <mxGeometry relative="1" as="geometry" />
        </mxCell>
        <mxCell id="GOKQv8CPCW2Fxh-G2tMz-93" value="[Não possui permissão]" style="text;html=1;align=center;verticalAlign=middle;resizable=0;points=[];autosize=1;strokeColor=none;fillColor=none;" vertex="1" parent="1">
          <mxGeometry x="786" y="540" width="143" height="26" as="geometry" />
        </mxCell>
        <mxCell id="GOKQv8CPCW2Fxh-G2tMz-95" style="edgeStyle=orthogonalEdgeStyle;rounded=0;orthogonalLoop=1;jettySize=auto;html=1;entryX=0.5;entryY=0.001;entryDx=0;entryDy=0;entryPerimeter=0;endArrow=open;endFill=0;" edge="1" parent="1" source="GOKQv8CPCW2Fxh-G2tMz-87" target="GOKQv8CPCW2Fxh-G2tMz-90">
          <mxGeometry relative="1" as="geometry" />
        </mxCell>
        <mxCell id="GOKQv8CPCW2Fxh-G2tMz-96" value="&lt;div style=&quot;font-size: 12px;&quot;&gt;Usuário&lt;/div&gt;&lt;div style=&quot;font-size: 12px;&quot;&gt;promovido&lt;/div&gt;" style="rounded=1;whiteSpace=wrap;html=1;fontSize=12;" vertex="1" parent="1">
          <mxGeometry x="668" y="879" width="120" height="60" as="geometry" />
        </mxCell>
        <mxCell id="GOKQv8CPCW2Fxh-G2tMz-97" style="edgeStyle=orthogonalEdgeStyle;rounded=0;orthogonalLoop=1;jettySize=auto;html=1;endArrow=open;endFill=0;" edge="1" parent="1" source="GOKQv8CPCW2Fxh-G2tMz-90">
          <mxGeometry relative="1" as="geometry">
            <mxPoint x="729" y="879" as="targetPoint" />
          </mxGeometry>
        </mxCell>
        <mxCell id="GOKQv8CPCW2Fxh-G2tMz-98" value="[Promoção liberada]" style="text;html=1;align=center;verticalAlign=middle;resizable=0;points=[];autosize=1;strokeColor=none;fillColor=none;" vertex="1" parent="1">
          <mxGeometry x="723" y="837" width="125" height="26" as="geometry" />
        </mxCell>
        <mxCell id="GOKQv8CPCW2Fxh-G2tMz-99" style="edgeStyle=orthogonalEdgeStyle;rounded=0;orthogonalLoop=1;jettySize=auto;html=1;endArrow=open;endFill=0;" edge="1" parent="1" source="GOKQv8CPCW2Fxh-G2tMz-91">
          <mxGeometry relative="1" as="geometry">
            <mxPoint x="408" y="1130" as="targetPoint" />
            <Array as="points">
              <mxPoint x="1160" y="563" />
              <mxPoint x="1160" y="1071" />
              <mxPoint x="408" y="1071" />
            </Array>
          </mxGeometry>
        </mxCell>
        <mxCell id="GOKQv8CPCW2Fxh-G2tMz-100" style="edgeStyle=orthogonalEdgeStyle;rounded=0;orthogonalLoop=1;jettySize=auto;html=1;endArrow=open;endFill=0;" edge="1" parent="1" source="GOKQv8CPCW2Fxh-G2tMz-96">
          <mxGeometry relative="1" as="geometry">
            <mxPoint x="422" y="1130" as="targetPoint" />
            <Array as="points">
              <mxPoint x="628" y="909" />
              <mxPoint x="628" y="1071" />
              <mxPoint x="422" y="1071" />
            </Array>
          </mxGeometry>
        </mxCell>
        <mxCell id="GOKQv8CPCW2Fxh-G2tMz-101" value="&lt;div style=&quot;font-size: 12px;&quot;&gt;&lt;div&gt;Promoção&amp;nbsp;&lt;/div&gt;&lt;div&gt;interrompida&lt;/div&gt;&lt;/div&gt;" style="rounded=1;whiteSpace=wrap;html=1;fontSize=12;" vertex="1" parent="1">
          <mxGeometry x="943" y="773" width="120" height="60" as="geometry" />
        </mxCell>
        <mxCell id="GOKQv8CPCW2Fxh-G2tMz-102" style="edgeStyle=orthogonalEdgeStyle;rounded=0;orthogonalLoop=1;jettySize=auto;html=1;entryX=-0.004;entryY=0.456;entryDx=0;entryDy=0;entryPerimeter=0;endArrow=open;endFill=0;" edge="1" parent="1" source="GOKQv8CPCW2Fxh-G2tMz-90" target="GOKQv8CPCW2Fxh-G2tMz-101">
          <mxGeometry relative="1" as="geometry" />
        </mxCell>
        <mxCell id="GOKQv8CPCW2Fxh-G2tMz-103" value="[Validação falhou]" style="text;html=1;align=center;verticalAlign=middle;resizable=0;points=[];autosize=1;strokeColor=none;fillColor=none;" vertex="1" parent="1">
          <mxGeometry x="792" y="776" width="113" height="26" as="geometry" />
        </mxCell>
        <mxCell id="GOKQv8CPCW2Fxh-G2tMz-104" style="edgeStyle=orthogonalEdgeStyle;rounded=0;orthogonalLoop=1;jettySize=auto;html=1;entryX=0.95;entryY=0;entryDx=0;entryDy=0;entryPerimeter=0;endArrow=open;endFill=0;" edge="1" parent="1" source="GOKQv8CPCW2Fxh-G2tMz-101" target="GOKQv8CPCW2Fxh-G2tMz-73">
          <mxGeometry relative="1" as="geometry">
            <Array as="points">
              <mxPoint x="1003" y="1071" />
              <mxPoint x="431" y="1071" />
            </Array>
          </mxGeometry>
        </mxCell>
      </root>
    </mxGraphModel>
  </diagram>
</mxfile>
